PathFileType	4	(X/Y/Z)	Patient4_TMGait_0pt4_03_right_18.trc.trc
DataRate	CameraRate	NumFrames	NumMarkers	Units	OrigDataRate	OrigDataStartFrame	OrigNumFrames
75.268817204301	75.268817204301	6	33	mm	75.268817204301	71	       141
Frame#	Time	Sacral			L.Shoulder			Chest			R.Shoulder			Neck			R.ASIS			L.ASIS			R.Thigh.Superior			R.Thigh.Lateral			R.Thigh.Inferior			R.Patella			L.Thigh.Superior			L.Thigh.Lateral			L.Thigh.Inferior			L.Patella			L.Shank.Superior			L.Shank.Lateral			L.Shank.Inferior			R.Shank.Superior			R.Shank.Lateral			R.Shank.Inferior			R.Heel			R.Midfoot.Superior			R.Midfoot.Lateral			R.Toe			L.Heel			L.Midfoot.Lateral			L.Midfoot.Superior			L.Toe			L.Elbow			L.Wrist			R.Elbow			R.Wrist			
		X1	Y1	Z1	X2	Y2	Z2	X3	Y3	Z3	X4	Y4	Z4	X5	Y5	Z5	X6	Y6	Z6	X7	Y7	Z7	X8	Y8	Z8	X9	Y9	Z9	X10	Y10	Z10	X11	Y11	Z11	X12	Y12	Z12	X13	Y13	Z13	X14	Y14	Z14	X15	Y15	Z15	X16	Y16	Z16	X17	Y17	Z17	X18	Y18	Z18	X19	Y19	Z19	X20	Y20	Z20	X21	Y21	Z21	X22	Y22	Z22	X23	Y23	Z23	X24	Y24	Z24	X25	Y25	Z25	X26	Y26	Z26	X27	Y27	Z27	X28	Y28	Z28	X29	Y29	Z29	X30	Y30	Z30	X31	Y31	Z31	X32	Y32	Z32	X33	Y33	Z33	

71	23.760000000000	855.059643034294	1001.791997826095	521.163515395028	1007.070099747368	1423.016284257256	309.363975728026	1137.785530959367	1354.423044537162	449.070622052299	1092.121407783402	1431.958926869815	635.004749384399	1021.714875056631	1488.017551419138	463.025515444011	1095.900288365609	931.550749228840	602.704989709531	1043.903923828356	955.290650995582	333.422354438646	1096.584929990514	721.308219883503	575.269657095633	1000.616939095608	624.431177743830	644.817904091040	1056.971475914032	560.903549250068	560.456695886325	1040.070079333104	473.945403742653	568.116537344535	1121.055595828693	766.053311216402	358.468670310469	1060.748466802874	638.004628974640	289.724149014903	1166.174658333876	579.219733081074	345.270519425188	1188.354533108834	513.292140240904	342.992360221399	1170.208687810208	440.145960878627	333.019441237662	1097.442406969856	312.328815188842	286.933918588232	1183.401102943496	210.810424522356	338.549681849263	998.823674850987	390.565720449495	577.360508673510	914.404328666864	299.215630950472	642.304362457719	937.971213937619	198.776381309482	578.777434524977	786.461312115291	43.162460215435	549.606085308047	954.996027234080	94.956871563202	590.985177493700	866.414254327166	36.227337403083	627.088873162090	1074.756864416645	42.700672186573	625.130256137597	1094.070812346976	38.972866929087	380.324588889759	1164.819517464289	40.806605023174	297.598861322139	1240.972465134367	112.152526428994	318.373051115405	1371.342532779325	74.967880086366	285.678377558294	896.866724560703	1081.169383460411	219.475114355161	926.917120888215	820.563109111968	200.391400655056	1137.843891842891	1083.875548591109	750.877504794178	1324.092326935089	933.303736932198	655.639839903291	
72	23.773285714286	856.613232478797	1000.575999476070	518.715708698575	1007.281959414971	1421.797309724833	306.231676970490	1137.918156344869	1354.161595512071	446.453628129302	1091.211869810687	1431.549699743821	632.198296482448	1021.191476766653	1487.155822735148	459.955756977633	1097.559987528026	930.904032604496	601.242682316066	1046.110636811575	953.987258738525	331.887892718658	1097.485364847123	720.305114901534	574.379207614936	1000.268387808487	623.891021232262	643.524603470437	1056.540658399301	559.789675320236	559.649468203477	1038.955025098822	472.577555921707	567.165655573923	1122.476020339629	763.192989353395	356.750368998848	1059.682658432938	635.602201876017	289.469642426812	1165.115479039858	576.461459489890	344.768708191933	1185.860087728347	510.040020605699	343.207651544023	1167.663037138611	437.014324821486	333.202477252088	1093.904254561858	309.438391515961	288.061721638903	1179.301955093902	207.659962706393	339.851514897490	996.700793272913	389.719888245402	576.425751691020	911.377133905790	299.368695027558	641.696790823208	933.902234789279	198.546075055231	578.430290844208	781.194356795513	43.617308727256	549.719487951347	949.852398654823	95.012690286381	590.987306930584	861.154833279070	36.386431543672	627.058266825180	1069.486646240205	42.351934826676	625.217871080870	1087.744557255184	38.338977236844	382.671641282360	1158.062943419120	38.874631445637	299.442421807005	1236.176180493497	107.912856205883	320.316928012383	1365.639599052526	67.388727104533	286.747400087955	899.164860680300	1079.066681924628	216.992370133975	932.338095297175	818.660157520002	198.979500759693	1137.509620974226	1082.875964580288	746.671882881025	1321.518054174366	930.075360715432	650.163097466300	
73	23.786571428571	858.116579173414	999.540356566790	516.233432623187	1007.585613484580	1420.694074135891	302.968291784888	1138.114385546095	1354.015601204183	443.725085436772	1090.378860613910	1431.298597582755	629.268342883783	1020.744363289814	1486.451037747567	456.732707536627	1099.189008353359	930.374085655920	599.613939830109	1048.204417746506	952.993108487517	330.215759933035	1098.623204615012	719.441124210534	573.254826326495	1000.359474364763	623.371220450541	642.008686630027	1056.626898100964	558.758401865562	558.583358942677	1038.474731976022	471.133392673887	566.026126314043	1123.938120430230	760.873670586603	354.961136497123	1059.128913030618	633.821412860979	288.871255761655	1164.449992061005	574.323968415297	344.156584233941	1183.794102774177	507.397692538506	343.271162057602	1165.586025436165	434.414856996187	333.181420844586	1090.993116843915	307.174863046393	288.402742192572	1175.434726115856	204.994917347084	340.716256192088	995.023831652093	388.888646384686	575.341602564814	908.697817442608	299.678713812674	640.972935039305	930.057104404374	198.434339566460	578.018544736368	775.961386810886	44.410488404473	549.854841306259	944.823402134683	95.134843169641	590.979996134320	855.949333747966	36.718327389686	627.029130532086	1064.260383863691	41.931460268991	625.307385852143	1081.469088975345	37.979853044868	384.244130168549	1151.524406074153	37.394270023614	300.665128771737	1231.390123716349	104.317021273485	321.841526329535	1360.080634544931	60.775064400849	287.672620487499	901.977451363759	1076.986496960313	214.221143530907	938.344353954134	816.843772945700	197.172549675294	1136.762001448657	1082.046600338302	742.582789857110	1318.424228252782	926.663294691117	645.258643235007	
74	23.799857142857	859.533097555018	998.759816658666	513.746705228718	1007.952469263701	1419.776638470457	299.614563698076	1138.372492034153	1354.014871707361	440.882499266711	1089.704012167529	1431.265601212785	626.217846042166	1020.398841414536	1485.962322979069	453.381837122654	1100.727774551860	930.023192943275	597.795446937851	1050.099770446134	952.374065038421	328.362026681494	1099.947072229029	718.778607489759	571.847934612914	1000.931298840988	622.903751339596	640.272423837418	1057.283929357391	557.865151831070	557.243413231264	1038.723380331785	469.642432466251	564.744790853458	1125.430981617915	759.261517843221	353.106456324518	1059.156840505872	632.747708195422	287.907549296955	1164.206626232834	572.881098727874	343.382237253606	1182.202001596536	505.443797450984	343.126547782726	1164.006955760583	432.416384251331	332.940355606731	1088.732596661826	305.605971163935	287.967822645330	1171.832666167405	202.896646662681	341.157457770727	993.870249523446	388.107067479281	574.146769568055	906.415256061566	300.204266552610	640.149451530997	926.484524294959	198.495869704579	577.568223693386	770.783061451301	45.649879273016	550.017562407103	939.954523575021	95.349932077266	590.989890315266	850.811449462623	37.281528810980	627.003869173297	1059.087186058431	41.442527525032	625.396351463593	1075.404690980061	37.850938500373	385.106154346588	1145.344771665811	36.363573808094	301.321495526146	1226.651380832350	101.502266820479	322.922595236751	1354.735971067364	55.451988093338	288.418528406060	905.290060897932	1075.009888430860	211.184309047883	944.903792556433	815.199185165445	194.978189502898	1135.610107552235	1081.462329440594	738.657192870084	1314.788680374217	923.107115576025	641.009044611877	
75	23.813142857143	860.842365958375	998.282224376608	511.260705933657	1008.345441998033	1419.102767026748	296.209980689055	1138.681451154975	1354.184694668275	437.928025272305	1089.240076829625	1431.496213017137	623.053574122065	1020.163046885441	1485.731286220929	449.932307048542	1102.128999618012	929.903581955252	595.772900040246	1051.748872577641	952.157650833572	326.284563515949	1101.409802083329	718.369990295601	570.124890225535	1002.018175904588	622.518091836929	638.331703618360	1058.564093425922	557.158484928592	555.635323258931	1039.790506639730	468.136265714145	563.391398074652	1126.949547413668	758.437247651930	351.184278529628	1059.757644923344	632.379022868633	286.594459992533	1164.349957648667	572.107954224390	342.401172804711	1181.057277328879	504.157391075768	342.735326039578	1162.868068186624	431.005166687400	332.483161729402	1087.017022313051	304.713403196907	286.876366962045	1168.446970401495	201.369699357243	341.234770009870	993.322686240301	387.407254999589	572.896508146069	904.580945218379	301.001787908442	639.250828691557	923.239367127000	198.784046410195	577.112877912318	765.688078551333	47.442841856291	550.210334954053	935.293402007777	95.678084882606	591.041389085314	845.756308029255	38.135107225433	626.984520164358	1053.972953757661	40.897226774538	625.480616640273	1069.611370258987	37.890495608409	385.386881963559	1139.549388189907	35.733974831415	301.515011945043	1221.936641306426	99.496794788125	323.585898540042	1349.591284734653	51.544076697512	288.964995934706	909.063956218944	1073.213388302513	207.903462992725	951.990302586806	813.810299922811	192.409857804245	1134.076571687933	1081.189293758320	734.935386566860	1310.601344434072	919.450180449797	637.479169710405	
76	23.826428571429	862.038530112400	998.122653745583	508.755677085696	1008.724609837772	1418.708832813627	292.786705857697	1139.021716738930	1354.542474375420	434.868685903516	1089.000717747846	1432.013390124597	619.786130838546	1020.027851461069	1485.775305624547	446.413103839601	1103.361332528604	930.047993520488	593.541207094621	1053.147558878159	952.330995114005	323.953306075945	1102.980361016843	718.249137527210	568.074589002561	1003.648783873711	622.234586056374	636.214254358328	1060.518673901038	556.672257175473	553.784639358146	1041.757148568350	466.644071341385	562.047548302935	1128.484120045860	758.371426068802	349.181611453046	1060.815876873952	632.619846304507	284.985241197549	1164.768400942601	571.884306886649	341.185640990917	1180.258877426361	503.434201859415	342.089727775151	1162.035603687640	430.099147533176	331.832283502837	1085.651161687530	304.400863898935	285.326159458894	1165.183453200337	200.353522552703	341.037576747847	993.466979140569	386.813064876840	571.654383111014	903.252062983783	302.118983160490	638.305177677275	920.382757894285	199.345298724483	576.688328336791	760.714956345006	49.889071317182	550.432181057653	930.888003927328	96.130877020246	591.153779514943	840.801519585495	39.335998433743	626.972359730497	1048.918972404090	40.316562284404	625.554274416624	1064.078783679850	38.032869888183	385.247283741255	1134.088296482040	35.426415410249	301.373246936251	1217.200164990361	98.233079567108	323.897393628946	1344.588606057007	48.987864234042	289.314737906881	913.233900618619	1071.659477603726	204.397017484955	959.580954132408	812.751242855685	189.486281147299	1132.195519853634	1081.275669965485	731.450321016040	1305.869352941295	915.739532036777	634.713360128401	
